<svg xmlns="http://www.w3.org/2000/svg" width="17.382" height="21.129" viewBox="0 0 17.382 21.129">
  <path id="flask" d="M17.415,16.412l-3.677-4.8a6.865,6.865,0,0,1-1.4-4.147V3.59A1.857,1.857,0,0,0,11.671,0H6.719a1.851,1.851,0,0,0-.57,3.615v3.7a6.888,6.888,0,0,1-1.386,4.123L.925,16.474A3.091,3.091,0,0,0,3.6,21.129H14.791a3.081,3.081,0,0,0,2.625-4.717Zm-8.221-8.9a.619.619,0,1,1-.619.619A.613.613,0,0,1,9.195,7.511Zm.619,3.1a.619.619,0,1,1-.619-.619A.613.613,0,0,1,9.814,10.606Zm5.534,7.7a.634.634,0,0,1-.557.347H3.6a.618.618,0,0,1-.5-.99L6.818,12.71a.594.594,0,0,1,.5-.248h3.764a.594.594,0,0,1,.5.248l3.714,4.952A.634.634,0,0,1,15.348,18.306ZM7.623,13.7,4.837,17.415h8.716L10.767,13.7Zm0,0" transform="translate(-0.501)" fill="#fff"/>
</svg>
