<svg xmlns="http://www.w3.org/2000/svg" width="23.53" height="26" viewBox="0 0 23.53 26">
  <g id="skull" transform="translate(-39.6)">
    <path id="Pfad_106" data-name="Pfad 106" d="M51.364,0A11.77,11.77,0,0,0,39.6,11.77v5.545a.935.935,0,0,0,.371.745L45.03,21.9v3.165a.934.934,0,0,0,.936.936h.752a.934.934,0,0,0,.936-.936V23.78a.592.592,0,0,1,.593-.593h0a.592.592,0,0,1,.593.593v1.285a.934.934,0,0,0,.936.936H49.8a.934.934,0,0,0,.936-.936V23.78a.592.592,0,0,1,.593-.593h.062a.592.592,0,0,1,.593.593v1.285a.934.934,0,0,0,.936.936h.031a.934.934,0,0,0,.936-.936V23.78a.592.592,0,0,1,.593-.593h0a.592.592,0,0,1,.593.593v1.285A.934.934,0,0,0,56.01,26h.755a.934.934,0,0,0,.936-.936V21.9l5.058-3.839a.935.935,0,0,0,.371-.745V11.767A11.774,11.774,0,0,0,51.364,0ZM46.445,17.405a3.243,3.243,0,1,1,3.243-3.243A3.245,3.245,0,0,1,46.445,17.405Zm5.841,2.386H50.444a.562.562,0,0,1-.493-.833l.923-1.675a.561.561,0,0,1,.982,0l.923,1.675A.564.564,0,0,1,52.287,19.791Zm3.995-2.386a3.243,3.243,0,1,1,3.243-3.243A3.245,3.245,0,0,1,56.282,17.405Z" fill="#737474"/>
  </g>
</svg>
